<?xml version="1.0" encoding="UTF-8"?>
<svg version="1.1" xmlns="http://www.w3.org/2000/svg" width="864" height="256">
<path d="M0 0 C4.0613336 2.43680016 5.53401428 4.58300405 7 9 C7.2759478 10.92903132 7.48449903 12.8689032 7.625 14.8125 C7.69976562 15.78832031 7.77453125 16.76414062 7.8515625 17.76953125 C7.90054688 18.50558594 7.94953125 19.24164063 8 20 C5.88559413 17.999724 4.58388299 16.33681351 3 13.8125 C2.34 12.884375 1.68 11.95625 1 11 C0.01 11 -0.98 11 -2 11 C-16.30749794 37.89809612 -20.23205563 71.98195773 -12.75 101.6875 C-10.93548253 106.94960066 -8.00708515 111.14131602 -3.23046875 114.09375 C2.04772279 116.57760484 5.33782348 116.58176178 10.75 114.6875 C11.76900391 114.27757812 11.76900391 114.27757812 12.80859375 113.859375 C15.83273918 112.67343562 18.92073013 111.71686861 22.01953125 110.74609375 C24.26885997 109.98380653 24.26885997 109.98380653 27 108 C28.6787171 113.03615129 26.18082782 117.35244314 24 122 C21.18230129 126.50651173 17.8295847 128.31698794 12.8125 129.875 C2.36033249 132.26082084 -5.60971868 131.32827152 -15 126.4375 C-26.48827858 117.10327365 -30.28417143 105.23729186 -32 91 C-32.29172655 86.01725541 -32.33421505 81.05292773 -32.3125 76.0625 C-32.31034485 75.38502716 -32.3081897 74.70755432 -32.30596924 74.009552 C-32.19716223 52.57991815 -30.9855822 21.37407059 -15.171875 5.12109375 C-10.35193939 0.75682432 -6.65208359 -0.57345548 0 0 Z " fill="#000000" transform="translate(82,59)"/>
<path d="M0 0 C2.85448107 2.10330184 3.81602546 3.32542668 4.75 6.75 C4.8325 7.4925 4.915 8.235 5 9 C3.948125 8.4740625 3.948125 8.4740625 2.875 7.9375 C-0.74039542 6.75856671 -2.39347328 6.74875604 -6 8 C-15.6894987 15.84505098 -19.01156638 30.3705067 -20.6875 42.125 C-22.31095589 61.2955961 -22.01834363 82.34267805 -9.59765625 98.03515625 C-2.70704774 106.1788089 -2.70704774 106.1788089 6.7109375 110.53125 C13.27825509 110.45421402 17.32528845 109.30165036 23 106 C23.66 106 24.32 106 25 106 C23.93687946 112.99158094 20.32114305 118.83359982 15.1875 123.625 C9.06022518 126.26813816 3.96700755 125.58223444 -2.1875 123.25 C-16.34238925 116.94444258 -25.69312896 105.49310399 -31.50390625 91.3359375 C-40.26403368 67.62619088 -36.4346194 41.05017802 -27 18 C-23.17362909 9.91120451 -18.08251508 3.48939514 -9.9375 -0.5 C-6.27217632 -1.12388488 -3.60184773 -0.93381237 0 0 Z " fill="#000000" transform="translate(340,66)"/>
<path d="M0 0 C0.99 0 1.98 0 3 0 C5.82423666 8.14822322 8.46385483 16.32673791 10.8125 24.625 C11.03123779 25.38216309 11.24997559 26.13932617 11.4753418 26.91943359 C12.52883362 30.70861265 13.27493224 34.02526532 13 38 C14.093125 37.360625 15.18625 36.72125 16.3125 36.0625 C24.6538445 31.93588415 34.24768239 32.20753234 43 35 C48.22923193 37.37037159 51.95153188 40.08768364 54.5 45.3125 C57.31279007 53.01541592 57.73480324 60.20728108 55 68 C52.10051485 73.29905906 48.77389833 76.61305083 43.375 79.3125 C36.05842156 80.80291413 28.45469581 79.76523922 22 76 C19 72.03225806 19 72.03225806 19 69 C18.05898438 68.86980469 17.11796875 68.73960937 16.1484375 68.60546875 C13 67 13 67 12.16503906 65.21337891 C11.51919201 62.5913742 11.05375916 59.97886668 10.625 57.3125 C10.22977122 55.15720158 9.83247706 53.00228131 9.43359375 50.84765625 C9.21558105 49.62836426 8.99756836 48.40907227 8.77294922 47.15283203 C7.90047194 42.37525777 6.9061897 37.62418931 5.91015625 32.87109375 C5.7274115 31.99685257 5.54466675 31.12261139 5.35638428 30.22187805 C4.61601844 26.68222484 3.87459708 23.14279302 3.13287354 19.60342407 C2.6092675 17.0958112 2.09108527 14.58713449 1.57421875 12.078125 C1.41510513 11.32176254 1.25599152 10.56540009 1.09205627 9.78611755 C0.40258852 6.42134832 0 3.45351648 0 0 Z M18 44 C15.61193124 48.77613751 17.01683195 54.90532541 18.25390625 59.921875 C19.68730622 63.91438171 22.17415876 65.99911058 25.82421875 68 C30.90669517 70.23668903 34.6216502 70.32254503 40 69 C44.25123377 66.44925974 46.37970278 63.68085865 48 59 C48.28209553 53.3580894 46.65097646 49.34170174 43 45 C38.95672686 40.95672686 35.44215114 40.69479569 29.9375 40.5625 C25.01853734 40.56784089 21.97595684 41.01620854 18 44 Z " fill="#000000" transform="translate(526,79)"/>
<path d="M0 0 C1.65 0.33 3.3 0.66 5 1 C5 1.66 5 2.32 5 3 C4.34 3 3.68 3 3 3 C3.1853833 3.74338623 3.3707666 4.48677246 3.56176758 5.25268555 C5.76179927 14.38264275 7.29129851 23.53211341 8.6875 32.8125 C8.91426442 34.29499064 9.14147555 35.77741303 9.36914062 37.25976562 C9.91789191 40.83907475 10.46066422 44.4192585 11 48 C12.175625 46.5459375 12.175625 46.5459375 13.375 45.0625 C14.91288705 43.16037654 15.79259913 42.10370043 18 41 C23.01353911 40.62161969 26.00482115 40.86864361 30 44 C33.91615126 48.2317089 35.90841644 52.86198846 38.0625 58.125 C38.41320557 58.9701416 38.76391113 59.8152832 39.12524414 60.68603516 C42.23903288 68.32451386 44.41426623 75.91418636 46 84 C39.74151867 81.79112424 34.60811894 78.65271968 31 73 C29.49430774 69.38989534 28.25529131 65.70310936 27 62 C26.25352211 59.97786298 25.50365373 57.95697355 24.75 55.9375 C23 51.24615385 23 51.24615385 23 49 C20.24284248 51.3811815 19.19254815 53.58136197 18 57 C17.66097656 57.96679688 17.32195313 58.93359375 16.97265625 59.9296875 C15.72422044 63.87053305 14.72750913 67.85328296 13.80859375 71.8828125 C13.54175781 72.58148438 13.27492188 73.28015625 13 74 C9.66411172 75.11196276 8.29427581 75.09809194 5 74 C3.03203468 70.96522547 2.66149618 68.26952146 2.40576172 64.70336914 C2.32582977 63.6444899 2.24589783 62.58561066 2.1635437 61.49464417 C2.04778488 59.78219765 2.04778488 59.78219765 1.9296875 58.03515625 C1.84373322 56.85086533 1.75777893 55.6665744 1.66921997 54.44639587 C1.48881699 51.93582387 1.31256534 49.42495065 1.14013672 46.91381836 C0.87811727 43.10778081 0.60229437 39.30294132 0.32421875 35.49804688 C0.1502137 33.0521421 -0.02298823 30.60618002 -0.1953125 28.16015625 C-0.27653351 27.03674332 -0.35775452 25.91333038 -0.44143677 24.75587463 C-1.86525755 3.7305151 -1.86525755 3.7305151 0 0 Z " fill="#000000" transform="translate(683,70)"/>
<path d="M0 0 C4.62866356 1.15716589 6.54857149 3.88696692 9 7.75 C20.24229662 27.82863314 20.24229662 27.82863314 19 34.75 C16.8125 37.625 16.8125 37.625 14 39.75 C11.484375 39.63671875 11.484375 39.63671875 9 38.75 C3.32409477 31.96660106 0 18.52243467 0 9.75 C-0.66 9.75 -1.32 9.75 -2 9.75 C-2.08040527 10.30461914 -2.16081055 10.85923828 -2.24365234 11.43066406 C-2.61367977 13.95487398 -2.99422859 16.47738939 -3.375 19 C-3.56449219 20.30904297 -3.56449219 20.30904297 -3.7578125 21.64453125 C-3.95117188 22.91103516 -3.95117188 22.91103516 -4.1484375 24.203125 C-4.26364746 24.97817383 -4.37885742 25.75322266 -4.49755859 26.55175781 C-5.43931018 30.6720354 -6.43213566 32.37142377 -10 34.75 C-11.32 34.75 -12.64 34.75 -14 34.75 C-17.70077972 29.26263697 -19.05543549 24.00601431 -20.38671875 17.54296875 C-20.8667934 14.81226442 -20.8667934 14.81226442 -22 12.75 C-23.43138918 17.30442013 -23.33975791 22.0866068 -23.51757812 26.81835938 C-23.71647224 30.82251078 -24.04600333 34.2071133 -26 37.75 C-28.625 38.5625 -28.625 38.5625 -31 38.75 C-35.91564319 28.91871362 -35.13982128 18.53177415 -35 7.75 C-33.68 7.42 -32.36 7.09 -31 6.75 C-31 9.06 -31 11.37 -31 13.75 C-30.34 13.75 -29.68 13.75 -29 13.75 C-28.95875 12.821875 -28.9175 11.89375 -28.875 10.9375 C-28 7.75 -28 7.75 -25.25 5.6875 C-22 4.75 -22 4.75 -19.4375 5.625 C-16.29835887 8.36168714 -14.29484651 11.27494671 -12 14.75 C-11.85304688 14.15832031 -11.70609375 13.56664062 -11.5546875 12.95703125 C-9.61655515 6.12901327 -7.3463839 1.83659598 0 0 Z " fill="#000000" transform="translate(506,115.25)"/>
<path d="M0 0 C1.8125 1.375 1.8125 1.375 3 3 C3 3.66 3 4.32 3 5 C3.94875 4.79375 4.8975 4.5875 5.875 4.375 C7.421875 4.189375 7.421875 4.189375 9 4 C11.4385863 6.4385863 11.54545458 7.84090925 12.25 11.1875 C14.44870362 20.46223454 18.04699786 29.32591928 22.375 37.8125 C24 41 24 41 24 43 C18.58882267 42.34409972 13.71869633 40.14640843 10.2890625 35.86328125 C9.65097656 34.94095703 9.65097656 34.94095703 9 34 C8.38125 34.81404297 8.38125 34.81404297 7.75 35.64453125 C2.99614065 41.53379897 -0.81086983 44.31333118 -8.33203125 45.30859375 C-12.21922934 45.52132598 -14.44024056 45.31638577 -17.875 43.375 C-22.87115881 37.7910578 -24.41250617 31.62282774 -24.2734375 24.23828125 C-23.16296174 15.14824396 -17.90735463 7.92953909 -10.90234375 2.3203125 C-7.51594443 -0.03000161 -4.06784884 -0.41721527 0 0 Z M-2 5 C-7.9170306 10.24079853 -12.40406946 17.02923436 -13.203125 25.03515625 C-13.31779419 29.24799948 -13.31779419 29.24799948 -11.75 33.0625 C-10.05542043 34.14756919 -10.05542043 34.14756919 -8.125 34 C-2.61007199 31.40473976 0.04893069 26.76201481 2.27734375 21.33984375 C3.7031004 16.72347492 3.48123481 12.73984892 2.1875 8.0625 C1.11332248 5.66868314 1.11332248 5.66868314 -2 5 Z " fill="#000000" transform="translate(760,114)"/>
<path d="M0 0 C0.76183594 -0.00515625 1.52367187 -0.0103125 2.30859375 -0.015625 C4.77693018 0.2752708 6.420186 1.02024344 8.5625 2.25 C8.8925 1.59 9.2225 0.93 9.5625 0.25 C11.8125 -0.0625 11.8125 -0.0625 14.5625 0.25 C22.10844434 8.40616863 25.3734191 19.59263248 27.5625 30.25 C22.54376104 29.57709645 19.67493827 28.24086419 15.5625 25.25 C14.9025 24.92 14.2425 24.59 13.5625 24.25 C13.27117187 24.76949219 12.97984375 25.28898437 12.6796875 25.82421875 C9.50710844 31.22159382 6.29588048 35.38330976 0.5625 38.25 C-4.88706104 38.67741655 -8.65089538 37.91945258 -13.4375 35.25 C-16.20497659 32.30397653 -16.67191002 29.66582858 -16.875 25.75 C-16.63677594 18.52747949 -15.10144788 9.41564964 -9.875 4.0625 C-4.37197819 -0.02949058 -4.37197819 -0.02949058 0 0 Z M-2.25 8.375 C-5.77550599 13.00852216 -6.67250503 16.40171749 -6.0625 22.125 C-5.86709874 23.50189728 -5.66316098 24.87773731 -5.4375 26.25 C-3.13968446 26.36635105 -3.13968446 26.36635105 -0.4375 25.25 C4.97411966 19.825149 7.5625 13.95236395 7.5625 6.25 C3.27376907 5.82953618 1.25239619 5.7287451 -2.25 8.375 Z " fill="#000000" transform="translate(436.4375,116.75)"/>
<path d="M0 0 C3.88331039 2.58887359 4.25698361 5.26816324 5.375 9.5625 C5.58342529 10.3344873 5.79185059 11.10647461 6.0065918 11.90185547 C8.85890529 22.81459165 10.90684295 33.92174758 13 45 C13.81186768 44.04830933 13.81186768 44.04830933 14.64013672 43.07739258 C15.71158936 41.84218872 15.71158936 41.84218872 16.8046875 40.58203125 C17.51093262 39.7619458 18.21717773 38.94186035 18.94482422 38.09692383 C21 36 21 36 24.125 34.6875 C29.4729808 35.26880226 32.68755168 38.35923572 36.0625 42.3125 C41.59590372 50.09702597 46.13124114 63.4686123 46 73 C44.53125 75.30078125 44.53125 75.30078125 43 77 C38.64196409 76.51577379 36.80841363 75.33932902 34 72 C33.11865234 69.52978516 33.11865234 69.52978516 32.5859375 66.7890625 C32.38226563 65.79132813 32.17859375 64.79359375 31.96875 63.765625 C31.67484375 62.21101563 31.67484375 62.21101563 31.375 60.625 C30.96909726 58.57493426 30.56032412 56.52543438 30.1484375 54.4765625 C29.95733398 53.52297852 29.76623047 52.56939453 29.56933594 51.58691406 C28.92095825 48.64085489 28.05801234 45.82460175 27 43 C23.06217208 43.87507287 21.41678069 44.35327134 19.1875 47.8125 C17.03155938 53.59949851 16.73179117 59.19992763 16.4375 65.3125 C16.39431641 66.14845703 16.35113281 66.98441406 16.30664062 67.84570312 C16.20114693 69.89696935 16.10012685 71.9484648 16 74 C14.02 74.99 14.02 74.99 12 76 C9 74 9 74 8.375 71.5078125 C8.25125 70.39148438 8.1275 69.27515625 8 68.125 C7.92370361 67.47990479 7.84740723 66.83480957 7.76879883 66.17016602 C7.25597869 61.72957561 6.82834256 57.28015314 6.38671875 52.83203125 C6.15497853 50.5337194 5.92185447 48.23554675 5.6875 45.9375 C5.56793945 44.75905518 5.44837891 43.58061035 5.32519531 42.36645508 C4.17734773 31.60574178 2.4485199 20.98055422 0.5378418 10.33374023 C0.21746948 8.52305054 0.21746948 8.52305054 -0.109375 6.67578125 C-0.30499023 5.60239502 -0.50060547 4.52900879 -0.70214844 3.4230957 C-0.80043945 2.62347412 -0.89873047 1.82385254 -1 1 C-0.67 0.67 -0.34 0.34 0 0 Z " fill="#000000" transform="translate(365,76)"/>
<path d="M0 0 C2.5 0.3125 2.5 0.3125 4.125 1.8125 C5.23751103 3.83524732 6.24896403 5.85971946 7.25 7.9375 C9.35336557 12.27366902 12.02261503 16.07874733 14.83203125 19.984375 C16.17456216 21.85825889 17.44713599 23.74606067 18.6875 25.6875 C20.42538941 28.37296777 20.42538941 28.37296777 22.75 30.5625 C23.3275 31.14 23.905 31.7175 24.5 32.3125 C24.5 32.9725 24.5 33.6325 24.5 34.3125 C16.59963163 32.89304847 8.6832413 30.68923157 2.5 25.3125 C2.314375 26.01375 2.12875 26.715 1.9375 27.4375 C-0.12467172 31.56184344 -2.34366325 34.20996449 -6.5 36.3125 C-10.96590124 37.09252211 -15.03531718 37.10452652 -19.5 36.3125 C-23.05229377 33.80499851 -24.8623237 31.27962966 -26.5 27.3125 C-27.39197059 18.99516389 -26.41174024 13.48599435 -21.625 6.625 C-15.46968257 -0.07343367 -8.49268196 0.75827517 0 0 Z M-7.5 4.3125 C-13.97227063 7.84282944 -16.06077281 12.18671538 -18.4375 19 C-18.52469844 22.22634244 -17.45485851 23.79911049 -15.5 26.3125 C-14.51 26.6425 -13.52 26.9725 -12.5 27.3125 C-7.58915229 24.03860153 -5.17532979 21.12687984 -3.5 15.3125 C-3.3962895 11.55818003 -3.68159329 8.36006059 -6.0625 5.3125 C-6.536875 4.9825 -7.01125 4.6525 -7.5 4.3125 Z " fill="#000000" transform="translate(614.5,115.6875)"/>
<path d="M0 0 C6.98170981 2.91657379 13.91226918 8.80075007 16.9375 15.8125 C18.85343608 22.00336846 19.09416597 28.28831395 16.375 34.25 C13.55489218 39.14546885 10.41864395 43.07371083 5.0625 45.125 C-0.55823223 44.89558236 -3.89429164 42.08057863 -7.75 38.3125 C-12.73614068 31.74659198 -13.80644249 24.03798418 -13 16 C-12.49080119 13.56280911 -11.82034571 11.35849392 -11 9 C-12.32 9 -13.64 9 -15 9 C-14.72608098 5.7129718 -14.18168017 4.21006769 -12 1.6875 C-7.86315248 -0.63947673 -4.64252559 -0.88651242 0 0 Z M-5 11 C-6.59841268 15.79523804 -5.35345563 20.21084932 -4 25 C-2.56865497 27.86269006 -0.91997143 30.44248081 1 33 C2.98491642 32.73323796 2.98491642 32.73323796 5 32 C6.68968741 26.93093778 6.54626879 22.64342501 4.4375 17.75 C2.12941478 13.45046218 -0.43099055 12.40584906 -5 11 Z " fill="#000000" transform="translate(122,108)"/>
<path d="M0 0 C4.9003568 0.63523144 7.34747436 2.72832051 10.375 6.4375 C13.34086467 10.97060651 15.87078511 15.74942133 18.37646484 20.54736328 C19.21350267 22.13180016 20.09573797 23.69224722 20.98828125 25.24609375 C24.58735182 31.71168071 25.60686632 38.12303298 26.375 45.4375 C22.6655319 44.86932443 20.02556817 43.9106664 16.875 41.875 C16.1428125 41.41996094 15.410625 40.96492188 14.65625 40.49609375 C8.73066509 35.14886216 6.12803364 27.81128542 3.5625 20.4375 C3.25119141 19.56738281 2.93988281 18.69726562 2.61914062 17.80078125 C1.86262135 15.68252729 1.11479347 13.56164041 0.375 11.4375 C-0.59135567 14.33656702 -0.77478249 16.31046895 -0.8359375 19.33203125 C-0.86429688 20.28787109 -0.89265625 21.24371094 -0.921875 22.22851562 C-0.97365067 24.23093981 -1.01801175 26.23357046 -1.0546875 28.23632812 C-1.23330727 33.7772622 -1.6299304 37.7206658 -4.625 42.4375 C-7 42.125 -7 42.125 -9.625 41.4375 C-12.54181224 37.06228164 -12.46293348 32.71967747 -12.9375 27.5625 C-13.04900391 26.56863281 -13.16050781 25.57476562 -13.27539062 24.55078125 C-13.96428857 17.25139456 -13.96428857 17.25139456 -12.29296875 13.2421875 C-11.74253906 12.64664063 -11.19210937 12.05109375 -10.625 11.4375 C-9.965 11.4375 -9.305 11.4375 -8.625 11.4375 C-8.10099609 10.37208984 -8.10099609 10.37208984 -7.56640625 9.28515625 C-7.11136719 8.36605469 -6.65632812 7.44695312 -6.1875 6.5 C-5.73503906 5.58347656 -5.28257812 4.66695313 -4.81640625 3.72265625 C-3.14918097 0.52486349 -3.14918097 0.52486349 0 0 Z " fill="#000000" transform="translate(809.625,111.5625)"/>
<path d="M0 0 C7.81758708 6.30598333 11.54071683 17.7563877 12.80859375 27.37890625 C12.99493419 29.93062942 13.04162266 32.44251858 13 35 C7.87571319 33.24310166 4.08723182 31.04242257 1.48828125 26.16015625 C1.10027344 25.13792969 0.71226562 24.11570313 0.3125 23.0625 C-0.08324219 22.04285156 -0.47898438 21.02320313 -0.88671875 19.97265625 C-1.25410156 18.99167969 -1.62148437 18.01070312 -2 17 C-2.66315314 15.33193221 -3.32857869 13.66475694 -4 12 C-6.67082203 18.09477404 -7.35089328 22.76916143 -7.0625 29.375 C-6.95365829 32.26972636 -6.9323365 35.09929505 -7 38 C-9 40 -9 40 -12.125 40.125 C-13.07375 40.08375 -14.0225 40.0425 -15 40 C-18.50981944 34.33709805 -18.96552259 28.53330378 -19.6875 22 C-19.81705078 20.93265625 -19.94660156 19.8653125 -20.08007812 18.765625 C-20.66302598 13.80594168 -21.06498334 8.9995693 -21 4 C-19.125 4.1875 -19.125 4.1875 -17 5 C-15.8671875 7.55078125 -15.8671875 7.55078125 -15 10 C-14.38511719 9.04287109 -14.38511719 9.04287109 -13.7578125 8.06640625 C-12.94957031 6.82697266 -12.94957031 6.82697266 -12.125 5.5625 C-11.32449219 4.32693359 -11.32449219 4.32693359 -10.5078125 3.06640625 C-7.66843213 -0.82486892 -4.57670363 -0.39454342 0 0 Z " fill="#000000" transform="translate(227,114)"/>
<path d="M0 0 C2.375 2.5 2.375 2.5 4 5 C3.13375 4.731875 2.2675 4.46375 1.375 4.1875 C-2.14290728 3.66201387 -2.14290728 3.66201387 -5.125 6 C-10.31318255 10.88860245 -12.69820241 16.55950745 -13.3125 23.5625 C-13.34677795 26.99109747 -13.34677795 26.99109747 -11.3125 28.875 C-4.25041877 32.31060709 4.09500345 31.77574455 11.4375 29.5 C12.24058594 29.2215625 13.04367187 28.943125 13.87109375 28.65625 C16 28 16 28 19 28 C12.84552016 35.52919184 6.12752272 42.46472907 -3.875 44 C-9.32502153 44.30646018 -13.6241168 43.34871978 -18 40 C-21.71102334 35.4391835 -25.12803875 30.01782132 -25 24 C-23.17530534 15.54293692 -19.55259882 8.4434655 -12.3125 3.5625 C-7.96498216 0.88092177 -5.25030805 -0.63003697 0 0 Z " fill="#000000" transform="translate(666,113)"/>
<path d="M0 0 C0.99 0 1.98 0 3 0 C7.2948173 16.62757321 10.40175388 33.38700425 13.25 50.3125 C13.42217041 51.3350589 13.59434082 52.3576178 13.77172852 53.41116333 C14.73141312 59.13027661 15.67649772 64.85160265 16.60571289 70.57574463 C16.95926586 72.74954812 17.31806333 74.92241786 17.67773438 77.09521484 C17.86142578 78.23297363 18.04511719 79.37073242 18.234375 80.54296875 C18.38616211 81.47520264 18.53794922 82.40743652 18.69433594 83.36791992 C19.5934118 91.1098823 19.5934118 91.1098823 17 95 C14.125 94.75 14.125 94.75 11 94 C8.99475847 91.01313354 8.61587889 88.16870024 8.26049805 84.63574219 C8.09176933 83.01360809 8.09176933 83.01360809 7.91963196 81.35870361 C7.8056456 80.18330017 7.69165924 79.00789673 7.57421875 77.796875 C7.44850998 76.56298035 7.32280121 75.32908569 7.19328308 74.05780029 C6.85593456 70.72354623 6.52589593 67.38875531 6.20061493 64.05331421 C6.00177878 62.01820603 5.80083994 59.98331671 5.59918213 57.94848633 C4.72077521 49.07938501 3.86273763 40.20840186 3.01263428 31.33654785 C2.6716514 27.78154913 2.32889878 24.226721 1.98632812 20.671875 C1.32255956 13.78140902 0.66063147 6.89076744 0 0 Z " fill="#000000" transform="translate(147,61)"/>
<path d="M0 0 C2.4375 0.75 2.4375 0.75 4.4375 1.75 C4.40269531 2.76707031 4.40269531 2.76707031 4.3671875 3.8046875 C4.18440407 13.23108994 4.67889242 21.07185656 10.4375 28.75 C10.4375 29.41 10.4375 30.07 10.4375 30.75 C12.4175 31.08 14.3975 31.41 16.4375 31.75 C16.4375 32.41 16.4375 33.07 16.4375 33.75 C12.8583026 36.08743504 10.18791171 37.58627381 6 38.5 C0.5408305 37.35070116 -2.24607818 34.09720158 -5.5625 29.75 C-9.31661354 23.46811667 -9.58304434 16.24872606 -7.98828125 9.21875 C-5.00983921 -0.4887648 -5.00983921 -0.4887648 0 0 Z " fill="#000000" transform="translate(182.5625,116.25)"/>
<path d="M0 0 C1.32 0 2.64 0 4 0 C5 3 5 3 4 6 C2.35 5.67 0.7 5.34 -1 5 C-0.67 3.35 -0.34 1.7 0 0 Z " fill="#000000" transform="translate(181,96)"/>
</svg>
